REM DIRINDEX 1\2\4,1\2\5,1\2\6,1\3\7,1\3\8
REM DIRNAME cjc128,folder01,folder02,folder03,folder04,folder05,folder06,folder07
TITLE ""
FILE "007_Lesson 06_Output_Stage.mp3" MP3
  TRACK 01 AUDIO
    TITLE "0:"
    INDEX 01 00:00:00
  TRACK 02 AUDIO
    TITLE "6:cjc128_0344"
    INDEX 01 00:00:11
  TRACK 03 AUDIO
    TITLE "0:"
    INDEX 01 00:02:71
  TRACK 04 AUDIO
    TITLE "6:cjc128_0345"
    INDEX 01 00:03:17
  TRACK 05 AUDIO
    TITLE "0:"
    INDEX 01 00:05:10
  TRACK 06 AUDIO
    TITLE "4:cjc128_0346"
    INDEX 01 00:05:65
  TRACK 07 AUDIO
    TITLE "0:"
    INDEX 01 00:08:42
  TRACK 08 AUDIO
    TITLE "5:cjc128_0347"
    INDEX 01 00:11:05
  TRACK 09 AUDIO
    TITLE "0:"
    INDEX 01 00:13:12
  TRACK 10 AUDIO
    TITLE "6:cjc128_0348"
    INDEX 01 00:13:67
  TRACK 11 AUDIO
    TITLE "0:"
    INDEX 01 00:15:52
  TRACK 12 AUDIO
    TITLE "4:cjc128_0349"
    INDEX 01 00:16:30
  TRACK 13 AUDIO
    TITLE "0:"
    INDEX 01 00:19:58
  TRACK 14 AUDIO
    TITLE "5:cjc128_0350"
    INDEX 01 00:22:42
  TRACK 15 AUDIO
    TITLE "0:"
    INDEX 01 00:25:03
  TRACK 16 AUDIO
    TITLE "6:cjc128_0351"
    INDEX 01 00:25:52
  TRACK 17 AUDIO
    TITLE "0:"
    INDEX 01 00:27:43
  TRACK 18 AUDIO
    TITLE "4:cjc128_0352"
    INDEX 01 00:28:23
  TRACK 19 AUDIO
    TITLE "0:"
    INDEX 01 00:31:14
  TRACK 20 AUDIO
    TITLE "5:cjc128_0353"
    INDEX 01 00:33:58
  TRACK 21 AUDIO
    TITLE "0:"
    INDEX 01 00:35:63
  TRACK 22 AUDIO
    TITLE "6:cjc128_0354"
    INDEX 01 00:36:40
  TRACK 23 AUDIO
    TITLE "0:"
    INDEX 01 00:38:31
  TRACK 24 AUDIO
    TITLE "4:cjc128_0355"
    INDEX 01 00:39:15
  TRACK 25 AUDIO
    TITLE "0:"
    INDEX 01 00:42:06
  TRACK 26 AUDIO
    TITLE "5:cjc128_0356"
    INDEX 01 00:44:36
  TRACK 27 AUDIO
    TITLE "0:"
    INDEX 01 00:46:33
  TRACK 28 AUDIO
    TITLE "6:cjc128_0357"
    INDEX 01 00:47:11
  TRACK 29 AUDIO
    TITLE "0:"
    INDEX 01 00:49:10
  TRACK 30 AUDIO
    TITLE "4:cjc128_0358"
    INDEX 01 00:49:69
  TRACK 31 AUDIO
    TITLE "0:"
    INDEX 01 00:53:04
  TRACK 32 AUDIO
    TITLE "5:cjc128_0359"
    INDEX 01 00:56:43
  TRACK 33 AUDIO
    TITLE "0:"
    INDEX 01 00:59:41
  TRACK 34 AUDIO
    TITLE "6:cjc128_0360"
    INDEX 01 01:00:19
  TRACK 35 AUDIO
    TITLE "0:"
    INDEX 01 01:02:01
  TRACK 36 AUDIO
    TITLE "4:cjc128_0361"
    INDEX 01 01:02:57
  TRACK 37 AUDIO
    TITLE "0:"
    INDEX 01 01:05:07
  TRACK 38 AUDIO
    TITLE "5:cjc128_0362"
    INDEX 01 01:07:37
  TRACK 39 AUDIO
    TITLE "0:"
    INDEX 01 01:09:28
  TRACK 40 AUDIO
    TITLE "6:cjc128_0363"
    INDEX 01 01:10:10
  TRACK 41 AUDIO
    TITLE "0:"
    INDEX 01 01:11:72
  TRACK 42 AUDIO
    TITLE "4:cjc128_0364"
    INDEX 01 01:12:50
  TRACK 43 AUDIO
    TITLE "0:"
    INDEX 01 01:16:05
  TRACK 44 AUDIO
    TITLE "5:cjc128_0365"
    INDEX 01 01:19:46
  TRACK 45 AUDIO
    TITLE "0:"
    INDEX 01 01:22:48
  TRACK 46 AUDIO
    TITLE "6:cjc128_0366"
    INDEX 01 01:23:30
  TRACK 47 AUDIO
    TITLE "0:"
    INDEX 01 01:24:71
  TRACK 48 AUDIO
    TITLE "4:cjc128_0367"
    INDEX 01 01:25:57
  TRACK 49 AUDIO
    TITLE "0:"
    INDEX 01 01:27:71
  TRACK 50 AUDIO
    TITLE "5:cjc128_0368"
    INDEX 01 01:30:09
  TRACK 51 AUDIO
    TITLE "0:"
    INDEX 01 01:31:61
  TRACK 52 AUDIO
    TITLE "6:cjc128_0369"
    INDEX 01 01:32:43
  TRACK 53 AUDIO
    TITLE "0:"
    INDEX 01 01:34:38
  TRACK 54 AUDIO
    TITLE "4:cjc128_0370"
    INDEX 01 01:35:20
  TRACK 55 AUDIO
    TITLE "0:"
    INDEX 01 01:38:06
  TRACK 56 AUDIO
    TITLE "5:cjc128_0371"
    INDEX 01 01:40:44
  TRACK 57 AUDIO
    TITLE "0:"
    INDEX 01 01:42:43
  TRACK 58 AUDIO
    TITLE "6:cjc128_0372"
    INDEX 01 01:43:27
  TRACK 59 AUDIO
    TITLE "0:"
    INDEX 01 01:45:24
  TRACK 60 AUDIO
    TITLE "4:cjc128_0373"
    INDEX 01 01:46:06
  TRACK 61 AUDIO
    TITLE "0:"
    INDEX 01 01:49:16
  TRACK 62 AUDIO
    TITLE "5:cjc128_0374"
    INDEX 01 01:51:60
  TRACK 63 AUDIO
    TITLE "0:"
    INDEX 01 01:53:74
  TRACK 64 AUDIO
    TITLE "6:cjc128_0375"
    INDEX 01 01:54:58
  TRACK 65 AUDIO
    TITLE "0:"
    INDEX 01 01:56:51
  TRACK 66 AUDIO
    TITLE "4:cjc128_0376"
    INDEX 01 01:57:35
  TRACK 67 AUDIO
    TITLE "0:"
    INDEX 01 02:00:33
  TRACK 68 AUDIO
    TITLE "5:cjc128_0377"
    INDEX 01 02:03:22
  TRACK 69 AUDIO
    TITLE "0:"
    INDEX 01 02:05:46
  TRACK 70 AUDIO
    TITLE "6:cjc128_0378"
    INDEX 01 02:06:26
  TRACK 71 AUDIO
    TITLE "0:"
    INDEX 01 02:08:23
  TRACK 72 AUDIO
    TITLE "4:cjc128_0379"
    INDEX 01 02:09:05
  TRACK 73 AUDIO
    TITLE "0:"
    INDEX 01 02:12:17
  TRACK 74 AUDIO
    TITLE "5:cjc128_0380"
    INDEX 01 02:14:71
  TRACK 75 AUDIO
    TITLE "0:"
    INDEX 01 02:17:12
  TRACK 76 AUDIO
    TITLE "6:cjc128_0381"
    INDEX 01 02:17:69
  TRACK 77 AUDIO
    TITLE "0:"
    INDEX 01 02:19:66
  TRACK 78 AUDIO
    TITLE "4:cjc128_0382"
    INDEX 01 02:20:42
  TRACK 79 AUDIO
    TITLE "0:"
    INDEX 01 02:23:46
  TRACK 80 AUDIO
    TITLE "5:cjc128_0383"
    INDEX 01 02:26:42
  TRACK 81 AUDIO
    TITLE "0:"
    INDEX 01 02:28:71
  TRACK 82 AUDIO
    TITLE "6:cjc128_0384"
    INDEX 01 02:29:57
  TRACK 83 AUDIO
    TITLE "0:"
    INDEX 01 02:31:51
  TRACK 84 AUDIO
    TITLE "4:cjc128_0385"
    INDEX 01 02:32:35
  TRACK 85 AUDIO
    TITLE "0:"
    INDEX 01 02:35:30
  TRACK 86 AUDIO
    TITLE "5:cjc128_0386"
    INDEX 01 02:38:38
  TRACK 87 AUDIO
    TITLE "0:"
    INDEX 01 02:41:01
  TRACK 88 AUDIO
    TITLE "6:cjc128_0387"
    INDEX 01 02:41:48
  TRACK 89 AUDIO
    TITLE "0:"
    INDEX 01 02:43:47
  TRACK 90 AUDIO
    TITLE "4:cjc128_0388"
    INDEX 01 02:44:23
  TRACK 91 AUDIO
    TITLE "0:"
    INDEX 01 02:47:35
  TRACK 92 AUDIO
    TITLE "5:cjc128_0389"
    INDEX 01 02:51:03
  TRACK 93 AUDIO
    TITLE "0:"
    INDEX 01 02:54:07
  TRACK 94 AUDIO
    TITLE "6:cjc128_0390"
    INDEX 01 02:54:62
  TRACK 95 AUDIO
    TITLE "0:"
    INDEX 01 02:56:53
  TRACK 96 AUDIO
    TITLE "4:cjc128_0391"
    INDEX 01 02:57:33
  TRACK 97 AUDIO
    TITLE "0:"
    INDEX 01 03:00:24
  TRACK 98 AUDIO
    TITLE "5:cjc128_0392"
    INDEX 01 03:03:26
  TRACK 99 AUDIO
    TITLE "0:"
    INDEX 01 03:05:62
  TRACK 100 AUDIO
    TITLE "6:cjc128_0393"
    INDEX 01 03:06:46
  TRACK 101 AUDIO
    TITLE "0:"
    INDEX 01 03:08:43
  TRACK 102 AUDIO
    TITLE "4:cjc128_0394"
    INDEX 01 03:09:17
  TRACK 103 AUDIO
    TITLE "0:"
    INDEX 01 03:12:27
  TRACK 104 AUDIO
    TITLE "5:cjc128_0395"
    INDEX 01 03:15:43
  TRACK 105 AUDIO
    TITLE "0:"
    INDEX 01 03:18:22
  TRACK 106 AUDIO
    TITLE "6:cjc128_0396"
    INDEX 01 03:19:03
  TRACK 107 AUDIO
    TITLE "0:"
    INDEX 01 03:20:46
  TRACK 108 AUDIO
    TITLE "4:cjc128_0397"
    INDEX 01 03:21:32
  TRACK 109 AUDIO
    TITLE "0:"
    INDEX 01 03:24:67
  TRACK 110 AUDIO
    TITLE "5:cjc128_0398"
    INDEX 01 03:28:18
  TRACK 111 AUDIO
    TITLE "0:"
    INDEX 01 03:31:01
  TRACK 112 AUDIO
    TITLE "6:cjc128_0399"
    INDEX 01 03:31:54
  TRACK 113 AUDIO
    TITLE "0:"
    INDEX 01 03:33:49
  TRACK 114 AUDIO
    TITLE "4:cjc128_0400"
    INDEX 01 03:34:32
  TRACK 115 AUDIO
    TITLE "0:"
    INDEX 01 03:37:31
  TRACK 116 AUDIO
    TITLE "5:cjc128_0401"
    INDEX 01 03:40:29
  TRACK 117 AUDIO
    TITLE "0:"
    INDEX 01 03:42:65
  TRACK 118 AUDIO
    TITLE "6:cjc128_0402"
    INDEX 01 03:43:45
  TRACK 119 AUDIO
    TITLE "0:"
    INDEX 01 03:45:36
  TRACK 120 AUDIO
    TITLE "4:cjc128_0403"
    INDEX 01 03:46:20
  TRACK 121 AUDIO
    TITLE "0:"
    INDEX 01 03:49:61
  TRACK 122 AUDIO
    TITLE "5:cjc128_0404"
    INDEX 01 03:53:22
  TRACK 123 AUDIO
    TITLE "0:"
    INDEX 01 03:56:16
  TRACK 124 AUDIO
    TITLE "6:cjc128_0405"
    INDEX 01 03:56:73
  TRACK 125 AUDIO
    TITLE "0:"
    INDEX 01 03:58:68
  TRACK 126 AUDIO
    TITLE "4:cjc128_0406"
    INDEX 01 03:59:52
  TRACK 127 AUDIO
    TITLE "0:"
    INDEX 01 04:02:72
  TRACK 128 AUDIO
    TITLE "5:cjc128_0407"
    INDEX 01 04:05:68
  TRACK 129 AUDIO
    TITLE "0:"
    INDEX 01 04:08:25
  TRACK 130 AUDIO
    TITLE "6:cjc128_0408"
    INDEX 01 04:09:07
  TRACK 131 AUDIO
    TITLE "0:"
    INDEX 01 04:11:08
  TRACK 132 AUDIO
    TITLE "4:cjc128_0409"
    INDEX 01 04:11:69
  TRACK 133 AUDIO
    TITLE "0:"
    INDEX 01 04:15:24
  TRACK 134 AUDIO
    TITLE "5:cjc128_0410"
    INDEX 01 04:18:28
  TRACK 135 AUDIO
    TITLE "0:"
    INDEX 01 04:20:70
  TRACK 136 AUDIO
    TITLE "6:cjc128_0411"
    INDEX 01 04:21:54
  TRACK 137 AUDIO
    TITLE "0:"
    INDEX 01 04:23:56
  TRACK 138 AUDIO
    TITLE "4:cjc128_0412"
    INDEX 01 04:24:32
  TRACK 139 AUDIO
    TITLE "0:"
    INDEX 01 04:27:44
  TRACK 140 AUDIO
    TITLE "5:cjc128_0413"
    INDEX 01 04:30:51
  TRACK 141 AUDIO
    TITLE "0:"
    INDEX 01 04:33:08
